<?xml version="1.0" encoding="UTF-8" standalone="no"?>
<!-- Created with Inkscape (http://www.inkscape.org/) -->

<svg
   width="115.90972mm"
   height="13mm"
   viewBox="0 0 115.90972 13.000001"
   version="1.1"
   id="svg147"
   xml:space="preserve"
   inkscape:version="1.2.2 (b0a8486541, 2022-12-01)"
   sodipodi:docname="banner.svg"
   xmlns:inkscape="http://www.inkscape.org/namespaces/inkscape"
   xmlns:sodipodi="http://sodipodi.sourceforge.net/DTD/sodipodi-0.dtd"
   xmlns="http://www.w3.org/2000/svg"
   xmlns:svg="http://www.w3.org/2000/svg"><sodipodi:namedview
     id="namedview149"
     pagecolor="#ffffff"
     bordercolor="#666666"
     borderopacity="1.0"
     inkscape:showpageshadow="2"
     inkscape:pageopacity="0.0"
     inkscape:pagecheckerboard="0"
     inkscape:deskcolor="#d1d1d1"
     inkscape:document-units="mm"
     showgrid="false"
     inkscape:zoom="1.1702724"
     inkscape:cx="93.567957"
     inkscape:cy="1.7090038"
     inkscape:window-width="1741"
     inkscape:window-height="647"
     inkscape:window-x="-230"
     inkscape:window-y="131"
     inkscape:window-maximized="0"
     inkscape:current-layer="layer1"
     showguides="true" /><defs
     id="defs144"><linearGradient
       id="linearGradient3062"
       inkscape:swatch="solid"><stop
         style="stop-color:#cfc584;stop-opacity:1;"
         offset="0"
         id="stop3060" /></linearGradient></defs><g
     inkscape:label="Layer 1"
     inkscape:groupmode="layer"
     id="layer1"
     transform="translate(-29.609315,-29.457001)"><g
       aria-label="EScope and ESpark"
       id="text651"
       style="font-size:11.0438px;line-height:1.25;font-family:Constantia;-inkscape-font-specification:'Constantia, Normal';font-variant-ligatures:none;stroke-width:0.690236"><path
         d="m 50.736389,39.880459 v -7.653354 h 4.50587 v 0.739935 h -3.644454 v 2.52903 h 3.246877 v 0.728891 h -3.246877 v 2.915563 h 3.920549 v 0.739935 z"
         style="font-family:Ubuntu;-inkscape-font-specification:Ubuntu"
         id="path3757" /><path
         d="m 58.621671,40.046116 q -0.894548,0 -1.490913,-0.198789 -0.585321,-0.198788 -0.806197,-0.331314 l 0.276095,-0.72889 q 0.231919,0.132525 0.739934,0.32027 0.519059,0.187744 1.281081,0.187744 0.87246,0 1.347344,-0.309226 0.474883,-0.32027 0.474883,-1.004986 0,-0.530102 -0.265051,-0.828285 -0.254007,-0.309226 -0.684716,-0.496971 -0.419664,-0.198788 -0.927679,-0.397577 -0.618453,-0.242963 -1.082292,-0.508015 -0.452796,-0.276095 -0.706804,-0.662628 -0.242963,-0.397576 -0.242963,-0.993942 0,-0.662628 0.298182,-1.115423 0.298183,-0.452796 0.861417,-0.684716 0.563234,-0.23192 1.3363,-0.23192 0.64054,0 1.181686,0.165657 0.55219,0.154613 0.850373,0.342358 l -0.287139,0.717847 q -0.32027,-0.220876 -0.78411,-0.353402 -0.452795,-0.132525 -0.971854,-0.132525 -0.706803,0 -1.159599,0.287139 -0.452796,0.287138 -0.452796,0.938723 0,0.441752 0.220876,0.717847 0.220876,0.276095 0.607409,0.463839 0.386533,0.187745 0.87246,0.386533 0.629497,0.242964 1.126468,0.519059 0.508015,0.265051 0.806197,0.695759 0.298183,0.419665 0.298183,1.137512 0,0.695759 -0.331314,1.159599 -0.331314,0.463839 -0.938723,0.706803 -0.607409,0.23192 -1.446738,0.23192 z"
         style="font-family:Ubuntu;-inkscape-font-specification:Ubuntu"
         id="path3759" /><path
         d="m 65.071253,40.001941 q -0.905592,0 -1.513001,-0.364446 -0.607409,-0.375489 -0.916636,-1.049161 -0.309226,-0.673672 -0.309226,-1.557176 0,-0.894547 0.32027,-1.568219 0.32027,-0.673672 0.916636,-1.049161 0.607409,-0.386533 1.435694,-0.386533 0.452796,0 0.861416,0.07731 0.408621,0.07731 0.640541,0.198789 l -0.209833,0.695759 q -0.220876,-0.09939 -0.496971,-0.165657 -0.276095,-0.06626 -0.72889,-0.06626 -0.916636,0 -1.402563,0.596365 -0.474883,0.596366 -0.474883,1.667614 0,0.662628 0.198788,1.170643 0.198788,0.496971 0.64054,0.78411 0.441752,0.276095 1.170643,0.276095 0.430708,0 0.750979,-0.09939 0.331314,-0.09939 0.485927,-0.176701 l 0.165657,0.706803 q -0.209832,0.110438 -0.640541,0.209832 -0.430708,0.0994 -0.894547,0.0994 z"
         style="font-family:Ubuntu;-inkscape-font-specification:Ubuntu"
         id="path3761" /><path
         d="m 70.063048,40.012984 q -0.762022,0 -1.358387,-0.364445 -0.596365,-0.375489 -0.938723,-1.049161 -0.331314,-0.673672 -0.331314,-1.579263 0,-0.905592 0.331314,-1.56822 0.342358,-0.673672 0.938723,-1.049161 0.596365,-0.375489 1.358387,-0.375489 0.773066,0 1.369432,0.375489 0.596365,0.375489 0.927679,1.049161 0.342358,0.662628 0.342358,1.56822 0,0.905591 -0.342358,1.579263 -0.331314,0.673672 -0.927679,1.049161 -0.585322,0.364445 -1.369432,0.364445 z m 0,-0.739934 q 0.55219,0 0.949767,-0.276095 0.397577,-0.276095 0.607409,-0.78411 0.220876,-0.508015 0.220876,-1.19273 0,-0.684716 -0.220876,-1.192731 -0.209832,-0.508015 -0.607409,-0.78411 -0.397577,-0.276095 -0.949767,-0.276095 -0.541146,0 -0.938723,0.276095 -0.397576,0.276095 -0.618452,0.78411 -0.209833,0.508015 -0.209833,1.192731 0,0.684715 0.209833,1.19273 0.220876,0.508015 0.618452,0.78411 0.397577,0.276095 0.938723,0.276095 z"
         style="font-family:Ubuntu;-inkscape-font-specification:Ubuntu"
         id="path3763" /><path
         d="m 74.226551,41.923562 v -7.565003 q 0.220876,-0.07731 0.519059,-0.14357 0.309226,-0.06626 0.706803,-0.110438 0.397577,-0.05522 0.883504,-0.05522 0.850373,0 1.490913,0.364446 0.640541,0.353401 0.993942,1.027073 0.353402,0.662628 0.353402,1.590307 0,0.872461 -0.309227,1.546132 -0.298182,0.673672 -0.87246,1.060205 -0.574277,0.375489 -1.402563,0.375489 -0.530102,0 -0.938723,-0.143569 -0.397576,-0.154613 -0.596365,-0.298183 v 2.35233 z M 76.49053,39.27305 q 0.496971,0 0.839329,-0.165657 0.353402,-0.176701 0.563234,-0.485927 0.220876,-0.309227 0.309226,-0.706804 0.0994,-0.40862 0.0994,-0.87246 0,-0.717847 -0.242964,-1.225862 -0.242964,-0.508015 -0.695759,-0.773066 -0.441752,-0.265051 -1.038118,-0.265051 -0.485927,0 -0.806197,0.05522 -0.309227,0.04418 -0.46384,0.08835 v 3.876374 q 0.187745,0.14357 0.574278,0.309227 0.386533,0.165657 0.861416,0.165657 z"
         style="font-family:Ubuntu;-inkscape-font-specification:Ubuntu"
         id="path3765" /><path
         d="m 83.194107,40.001941 q -1.004986,0 -1.634482,-0.386533 -0.618453,-0.386533 -0.916636,-1.060205 -0.287139,-0.673672 -0.287139,-1.535088 0,-1.004986 0.364446,-1.667614 0.364445,-0.662628 0.938723,-0.993942 0.585321,-0.331314 1.225862,-0.331314 0.717847,0 1.236905,0.309226 0.530103,0.298183 0.817242,0.927679 0.287138,0.618453 0.287138,1.579264 0,0.07731 -0.01104,0.187744 0,0.0994 -0.01104,0.187745 h -3.986812 q 0.04417,0.971854 0.519059,1.513001 0.485927,0.530102 1.501956,0.530102 0.563234,0 0.916636,-0.09939 0.364445,-0.110438 0.519058,-0.187745 l 0.14357,0.69576 q -0.154613,0.08835 -0.607409,0.209832 -0.441752,0.121482 -1.01603,0.121482 z m -1.954753,-3.45671 h 3.147484 q -0.01104,-0.563234 -0.187745,-0.960811 -0.176701,-0.40862 -0.508015,-0.618452 -0.32027,-0.220876 -0.795153,-0.220876 -0.485928,0 -0.850373,0.254007 -0.364445,0.254007 -0.574278,0.662628 -0.198788,0.408621 -0.23192,0.883504 z"
         style="font-family:Ubuntu;-inkscape-font-specification:Ubuntu"
         id="path3767" /><path
         d="m 91.046253,40.001941 q -0.618453,0 -1.10438,-0.176701 -0.485927,-0.176701 -0.762022,-0.574278 -0.276095,-0.397577 -0.276095,-1.049161 0,-0.629496 0.309226,-1.016029 0.309226,-0.397577 0.850373,-0.574278 0.55219,-0.176701 1.236905,-0.176701 0.309227,0 0.651584,0.05522 0.342358,0.05522 0.430709,0.09939 v -0.331314 q 0,-0.375489 -0.0994,-0.717847 -0.08835,-0.353401 -0.375489,-0.574277 -0.287139,-0.220876 -0.87246,-0.220876 -0.607409,0 -0.927679,0.08835 -0.32027,0.08835 -0.474884,0.143569 l -0.110438,-0.706803 q 0.198789,-0.08835 0.607409,-0.165657 0.408621,-0.07731 0.960811,-0.07731 0.78411,0 1.236906,0.276095 0.463839,0.276095 0.662628,0.762022 0.209832,0.474883 0.209832,1.093336 v 3.589235 q -0.23192,0.05522 -0.828285,0.154613 -0.596365,0.0994 -1.325256,0.0994 z m 0.121482,-0.706804 q 0.386533,0 0.695759,-0.02209 0.309226,-0.03313 0.519059,-0.07731 v -1.921621 q -0.110438,-0.05522 -0.37549,-0.110438 -0.265051,-0.05522 -0.684715,-0.05522 -0.353402,0 -0.717847,0.07731 -0.364446,0.07731 -0.618453,0.309226 -0.242964,0.23192 -0.242964,0.695759 0,0.618453 0.386533,0.861417 0.386533,0.242963 1.038118,0.242963 z"
         style="font-family:Ubuntu;-inkscape-font-specification:Ubuntu"
         id="path3769" /><path
         d="m 94.988886,39.880459 v -5.5219 q 0.342358,-0.08835 0.894548,-0.198789 0.55219,-0.110438 1.325256,-0.110438 0.894548,0 1.391519,0.331314 0.496971,0.331314 0.695759,0.927679 0.209832,0.585322 0.209832,1.369432 v 3.202702 h -0.828285 v -2.970782 q 0,-0.78411 -0.143569,-1.24795 -0.143569,-0.46384 -0.485927,-0.673672 -0.342358,-0.209832 -0.949767,-0.209832 -0.46384,0 -0.817241,0.05522 -0.353402,0.05522 -0.46384,0.08835 v 4.958667 z"
         style="font-family:Ubuntu;-inkscape-font-specification:Ubuntu"
         id="path3771" /><path
         d="m 103.79079,40.012984 q -0.83933,0 -1.47987,-0.353401 -0.64054,-0.364446 -0.99394,-1.027074 -0.3534,-0.673671 -0.3534,-1.601351 0,-0.883504 0.29818,-1.557176 0.30922,-0.673671 0.8835,-1.049161 0.58532,-0.386533 1.40256,-0.386533 0.53011,0 0.92768,0.154614 0.40862,0.143569 0.60741,0.287138 v -3.026001 l 0.81724,-0.143569 v 8.393288 q -0.20983,0.06626 -0.51905,0.143569 -0.30923,0.06626 -0.70681,0.110438 -0.38653,0.05522 -0.8835,0.05522 z m 0.011,-0.739934 q 0.48593,0 0.79516,-0.04417 0.32027,-0.05522 0.48592,-0.0994 v -3.876374 q -0.18774,-0.154613 -0.57427,-0.309226 -0.38654,-0.165657 -0.87246,-0.165657 -0.49698,0 -0.85038,0.176701 -0.34236,0.165657 -0.56323,0.474883 -0.20983,0.309227 -0.30923,0.717847 -0.0884,0.408621 -0.0884,0.872461 0,0.717847 0.24297,1.225861 0.254,0.496971 0.69576,0.762023 0.45279,0.265051 1.03811,0.265051 z"
         style="font-family:Ubuntu;-inkscape-font-specification:Ubuntu"
         id="path3773" /><path
         d="m 110.33975,39.880459 v -7.653354 h 4.50587 v 0.739935 h -3.64445 v 2.52903 h 3.24688 v 0.728891 h -3.24688 v 2.915563 h 3.92055 v 0.739935 z"
         style="font-family:Ubuntu;-inkscape-font-specification:Ubuntu"
         id="path3775" /><path
         d="m 118.22503,40.046116 q -0.89455,0 -1.49091,-0.198789 -0.58532,-0.198788 -0.8062,-0.331314 l 0.2761,-0.72889 q 0.23192,0.132525 0.73993,0.32027 0.51906,0.187744 1.28108,0.187744 0.87246,0 1.34735,-0.309226 0.47488,-0.32027 0.47488,-1.004986 0,-0.530102 -0.26505,-0.828285 -0.25401,-0.309226 -0.68472,-0.496971 -0.41966,-0.198788 -0.92768,-0.397577 -0.61845,-0.242963 -1.08229,-0.508015 -0.45279,-0.276095 -0.7068,-0.662628 -0.24297,-0.397576 -0.24297,-0.993942 0,-0.662628 0.29819,-1.115423 0.29818,-0.452796 0.86141,-0.684716 0.56324,-0.23192 1.3363,-0.23192 0.64054,0 1.18169,0.165657 0.55219,0.154613 0.85037,0.342358 l -0.28714,0.717847 q -0.32027,-0.220876 -0.78411,-0.353402 -0.45279,-0.132525 -0.97185,-0.132525 -0.7068,0 -1.1596,0.287139 -0.4528,0.287138 -0.4528,0.938723 0,0.441752 0.22088,0.717847 0.22088,0.276095 0.60741,0.463839 0.38653,0.187745 0.87246,0.386533 0.6295,0.242964 1.12647,0.519059 0.50801,0.265051 0.80619,0.695759 0.29819,0.419665 0.29819,1.137512 0,0.695759 -0.33132,1.159599 -0.33131,0.463839 -0.93872,0.706803 -0.60741,0.23192 -1.44674,0.23192 z"
         style="font-family:Ubuntu;-inkscape-font-specification:Ubuntu"
         id="path3777" /><path
         d="m 122.26707,41.923562 v -7.565003 q 0.22088,-0.07731 0.51906,-0.14357 0.30922,-0.06626 0.7068,-0.110438 0.39758,-0.05522 0.8835,-0.05522 0.85038,0 1.49092,0.364446 0.64054,0.353401 0.99394,1.027073 0.3534,0.662628 0.3534,1.590307 0,0.872461 -0.30922,1.546132 -0.29819,0.673672 -0.87247,1.060205 -0.57427,0.375489 -1.40256,0.375489 -0.5301,0 -0.93872,-0.143569 -0.39758,-0.154613 -0.59637,-0.298183 v 2.35233 z m 2.26398,-2.650512 q 0.49697,0 0.83933,-0.165657 0.3534,-0.176701 0.56323,-0.485927 0.22088,-0.309227 0.30923,-0.706804 0.0994,-0.40862 0.0994,-0.87246 0,-0.717847 -0.24296,-1.225862 -0.24297,-0.508015 -0.69576,-0.773066 -0.44175,-0.265051 -1.03812,-0.265051 -0.48593,0 -0.8062,0.05522 -0.30922,0.04418 -0.46384,0.08835 v 3.876374 q 0.18775,0.14357 0.57428,0.309227 0.38653,0.165657 0.86142,0.165657 z"
         style="font-family:Ubuntu;-inkscape-font-specification:Ubuntu"
         id="path3779" /><path
         d="m 130.46156,40.001941 q -0.61846,0 -1.10438,-0.176701 -0.48593,-0.176701 -0.76203,-0.574278 -0.27609,-0.397577 -0.27609,-1.049161 0,-0.629496 0.30922,-1.016029 0.30923,-0.397577 0.85038,-0.574278 0.55219,-0.176701 1.2369,-0.176701 0.30923,0 0.65159,0.05522 0.34235,0.05522 0.4307,0.09939 v -0.331314 q 0,-0.375489 -0.0994,-0.717847 -0.0884,-0.353401 -0.37549,-0.574277 -0.28714,-0.220876 -0.87246,-0.220876 -0.60741,0 -0.92768,0.08835 -0.32027,0.08835 -0.47488,0.143569 l -0.11044,-0.706803 q 0.19879,-0.08835 0.60741,-0.165657 0.40862,-0.07731 0.96081,-0.07731 0.78411,0 1.23691,0.276095 0.46384,0.276095 0.66262,0.762022 0.20984,0.474883 0.20984,1.093336 v 3.589235 q -0.23192,0.05522 -0.82829,0.154613 -0.59636,0.0994 -1.32525,0.0994 z m 0.12148,-0.706804 q 0.38653,0 0.69576,-0.02209 0.30922,-0.03313 0.51905,-0.07731 v -1.921621 q -0.11043,-0.05522 -0.37548,-0.110438 -0.26506,-0.05522 -0.68472,-0.05522 -0.3534,0 -0.71785,0.07731 -0.36444,0.07731 -0.61845,0.309226 -0.24296,0.23192 -0.24296,0.695759 0,0.618453 0.38653,0.861417 0.38653,0.242963 1.03812,0.242963 z"
         style="font-family:Ubuntu;-inkscape-font-specification:Ubuntu"
         id="path3781" /><path
         d="m 134.40419,39.880459 v -5.455638 q 0.28714,-0.121481 0.78411,-0.242963 0.50802,-0.132526 1.21482,-0.132526 0.23192,0 0.4528,0.03313 0.23192,0.02209 0.40862,0.06626 0.18774,0.03313 0.27609,0.06626 l -0.16566,0.706803 q -0.0994,-0.04418 -0.37548,-0.08835 -0.2761,-0.05522 -0.70681,-0.05522 -0.41966,0 -0.69576,0.06626 -0.27609,0.05522 -0.36444,0.09939 v 4.936579 z"
         style="font-family:Ubuntu;-inkscape-font-specification:Ubuntu"
         id="path3783" /><path
         d="m 138.58979,39.880459 v -8.42642 l 0.82829,-0.143569 v 5.367287 q 0.26505,-0.265051 0.59636,-0.596365 0.33132,-0.331315 0.67367,-0.684716 0.34236,-0.353402 0.64054,-0.673672 0.29819,-0.32027 0.50802,-0.563234 h 0.9829 q -0.33132,0.353402 -0.78411,0.817241 -0.44175,0.46384 -0.90559,0.938724 -0.4528,0.463839 -0.83933,0.839328 0.3534,0.242964 0.72889,0.618453 0.38653,0.364446 0.76202,0.795154 0.37549,0.430708 0.69576,0.87246 0.33131,0.441752 0.56323,0.839329 h -0.96081 q -0.33131,-0.563234 -0.79515,-1.10438 -0.46384,-0.55219 -0.94977,-1.004986 -0.48592,-0.452796 -0.91663,-0.728891 v 2.838257 z"
         style="font-family:Ubuntu;-inkscape-font-specification:Ubuntu"
         id="path3785" /></g><g
       id="g3216"
       transform="matrix(0.74885552,0,0,0.74885552,30.064689,28.041532)"><rect
         style="fill:#2c2c2c;fill-opacity:1;stroke-width:1.68903;stroke-linejoin:bevel;stroke-miterlimit:6"
         id="rect541"
         width="18.008223"
         height="13.109823"
         x="0.99999994"
         y="1.8901759"
         ry="1.1098239" /><rect
         style="fill:#2b2b2b;fill-opacity:1;stroke-width:1.6;stroke-linejoin:bevel;stroke-miterlimit:6"
         id="rect590"
         width="1.9999999"
         height="4.9999995"
         x="9"
         y="13.999999"
         ry="0.99999994" /><rect
         style="fill:#2b2b2b;fill-opacity:1;stroke-width:2.19089;stroke-linejoin:bevel;stroke-miterlimit:6"
         id="rect592"
         width="11.999999"
         height="2.4999998"
         x="3.9999998"
         y="16.75"
         ry="0.49999931" /><rect
         style="fill:#181818;fill-opacity:1;stroke-width:1.6;stroke-linejoin:bevel;stroke-miterlimit:6"
         id="rect594"
         width="15.999999"
         height="11"
         x="1.9999999"
         y="2.9999998"
         ry="0.75000006" /><path
         style="fill:none;fill-opacity:1;stroke:#fafd00;stroke-width:0.569148;stroke-linecap:round;stroke-linejoin:round;stroke-miterlimit:6;stroke-dasharray:none;stroke-opacity:1"
         d="m 4.2784185,8.7360806 c 0,0 1.0387466,-2.0362566 2.2271283,-2.0362566 1.6703462,0 2.2271283,3.490725 3.8974742,3.490725 1.711093,0 2.783911,-3.1998312 4.454256,-3.1998312"
         id="path2248"
         sodipodi:nodetypes="cssc" /><path
         style="fill:none;fill-opacity:1;stroke:#00d0fd;stroke-width:0.569148;stroke-linecap:round;stroke-linejoin:round;stroke-miterlimit:6;stroke-dasharray:none;stroke-opacity:1"
         d="m 14.857277,8.1541936 c 0,0 -1.038747,2.0362564 -2.227128,2.0362564 -1.670346,0 -2.227128,-3.4907252 -3.8974743,-3.4907252 -1.7110933,0 -2.783911,3.1998316 -4.4542562,3.1998316"
         id="path2248-3"
         sodipodi:nodetypes="cssc" /><path
         id="rect1202"
         style="fill:#00587d;stroke-width:1.87732;stroke-linejoin:bevel;stroke-miterlimit:6"
         d="M 4.5283964,3.5000448 C 4.2006617,3.5007596 3.9362582,3.7757208 3.9362582,4.1181751 v 8.6538259 c 0,0.342453 0.2644035,0.618844 0.5921382,0.618129 l 10.0877086,-0.022 c 0.327734,-7.14e-4 0.591563,-0.275676 0.591563,-0.618129 V 4.0961736 c 0,-0.3424543 -0.263829,-0.6188451 -0.591563,-0.6181303 z m 0.2434155,1.1635041 9.6003021,-0.022002 c 0.154227,-3.535e-4 0.278518,0.1298715 0.278518,0.2910264 v 7.5630777 c 0,0.161155 -0.124291,0.290673 -0.278518,0.291026 l -9.6003021,0.022 C 4.6175839,12.809032 4.493294,12.678808 4.493294,12.517653 V 4.9545753 c 0,-0.1611549 0.1242899,-0.2906729 0.2785179,-0.2910264 z"
         sodipodi:nodetypes="ssssssssssssssssss" /></g></g></svg>
