<?xml version="1.0" encoding="UTF-8" standalone="no"?>
<!-- Created with Inkscape (http://www.inkscape.org/) -->

<svg
   width="115.90972mm"
   height="13mm"
   viewBox="0 0 115.90972 13.000001"
   version="1.1"
   id="svg147"
   xml:space="preserve"
   inkscape:version="1.2.2 (b0a8486541, 2022-12-01)"
   sodipodi:docname="banner.in.svg"
   xmlns:inkscape="http://www.inkscape.org/namespaces/inkscape"
   xmlns:sodipodi="http://sodipodi.sourceforge.net/DTD/sodipodi-0.dtd"
   xmlns="http://www.w3.org/2000/svg"
   xmlns:svg="http://www.w3.org/2000/svg"><sodipodi:namedview
     id="namedview149"
     pagecolor="#ffffff"
     bordercolor="#666666"
     borderopacity="1.0"
     inkscape:showpageshadow="2"
     inkscape:pageopacity="0.0"
     inkscape:pagecheckerboard="0"
     inkscape:deskcolor="#d1d1d1"
     inkscape:document-units="mm"
     showgrid="false"
     inkscape:zoom="1.1702724"
     inkscape:cx="93.567957"
     inkscape:cy="1.7090038"
     inkscape:window-width="1741"
     inkscape:window-height="647"
     inkscape:window-x="-230"
     inkscape:window-y="131"
     inkscape:window-maximized="0"
     inkscape:current-layer="layer1"
     showguides="true" /><defs
     id="defs144"><linearGradient
       id="linearGradient3062"
       inkscape:swatch="solid"><stop
         style="stop-color:#cfc584;stop-opacity:1;"
         offset="0"
         id="stop3060" /></linearGradient></defs><g
     inkscape:label="Layer 1"
     inkscape:groupmode="layer"
     id="layer1"
     transform="translate(-29.609315,-29.457001)"><text
       xml:space="preserve"
       style="font-size:11.0438px;line-height:1.25;font-family:Constantia;-inkscape-font-specification:'Constantia, Normal';font-variant-ligatures:none;stroke-width:0.690236"
       x="49.75349"
       y="39.880459"
       id="text651"><tspan
         sodipodi:role="line"
         id="tspan649"
         style="font-style:normal;font-variant:normal;font-weight:normal;font-stretch:normal;font-family:Ubuntu;-inkscape-font-specification:Ubuntu;stroke-width:0.690236"
         x="49.75349"
         y="39.880459">EScope and ESpark</tspan></text><g
       id="g3216"
       transform="matrix(0.74885552,0,0,0.74885552,30.064689,28.041532)"><rect
         style="fill:#2c2c2c;fill-opacity:1;stroke-width:1.68903;stroke-linejoin:bevel;stroke-miterlimit:6"
         id="rect541"
         width="18.008223"
         height="13.109823"
         x="0.99999994"
         y="1.8901759"
         ry="1.1098239" /><rect
         style="fill:#2b2b2b;fill-opacity:1;stroke-width:1.6;stroke-linejoin:bevel;stroke-miterlimit:6"
         id="rect590"
         width="1.9999999"
         height="4.9999995"
         x="9"
         y="13.999999"
         ry="0.99999994" /><rect
         style="fill:#2b2b2b;fill-opacity:1;stroke-width:2.19089;stroke-linejoin:bevel;stroke-miterlimit:6"
         id="rect592"
         width="11.999999"
         height="2.4999998"
         x="3.9999998"
         y="16.75"
         ry="0.49999931" /><rect
         style="fill:#181818;fill-opacity:1;stroke-width:1.6;stroke-linejoin:bevel;stroke-miterlimit:6"
         id="rect594"
         width="15.999999"
         height="11"
         x="1.9999999"
         y="2.9999998"
         ry="0.75000006" /><path
         style="fill:none;fill-opacity:1;stroke:#fafd00;stroke-width:0.569148;stroke-linecap:round;stroke-linejoin:round;stroke-miterlimit:6;stroke-dasharray:none;stroke-opacity:1"
         d="m 4.2784185,8.7360806 c 0,0 1.0387466,-2.0362566 2.2271283,-2.0362566 1.6703462,0 2.2271283,3.490725 3.8974742,3.490725 1.711093,0 2.783911,-3.1998312 4.454256,-3.1998312"
         id="path2248"
         sodipodi:nodetypes="cssc" /><path
         style="fill:none;fill-opacity:1;stroke:#00d0fd;stroke-width:0.569148;stroke-linecap:round;stroke-linejoin:round;stroke-miterlimit:6;stroke-dasharray:none;stroke-opacity:1"
         d="m 14.857277,8.1541936 c 0,0 -1.038747,2.0362564 -2.227128,2.0362564 -1.670346,0 -2.227128,-3.4907252 -3.8974743,-3.4907252 -1.7110933,0 -2.783911,3.1998316 -4.4542562,3.1998316"
         id="path2248-3"
         sodipodi:nodetypes="cssc" /><path
         id="rect1202"
         style="fill:#00587d;stroke-width:1.87732;stroke-linejoin:bevel;stroke-miterlimit:6"
         d="M 4.5283964,3.5000448 C 4.2006617,3.5007596 3.9362582,3.7757208 3.9362582,4.1181751 v 8.6538259 c 0,0.342453 0.2644035,0.618844 0.5921382,0.618129 l 10.0877086,-0.022 c 0.327734,-7.14e-4 0.591563,-0.275676 0.591563,-0.618129 V 4.0961736 c 0,-0.3424543 -0.263829,-0.6188451 -0.591563,-0.6181303 z m 0.2434155,1.1635041 9.6003021,-0.022002 c 0.154227,-3.535e-4 0.278518,0.1298715 0.278518,0.2910264 v 7.5630777 c 0,0.161155 -0.124291,0.290673 -0.278518,0.291026 l -9.6003021,0.022 C 4.6175839,12.809032 4.493294,12.678808 4.493294,12.517653 V 4.9545753 c 0,-0.1611549 0.1242899,-0.2906729 0.2785179,-0.2910264 z"
         sodipodi:nodetypes="ssssssssssssssssss" /></g></g></svg>
